<?xml version="1.0" encoding="UTF-8"?>
<svg id="Calque_2" data-name="Calque 2" xmlns="http://www.w3.org/2000/svg" viewBox="0 0 118.79 118.63">
  <defs>
    <style>
      .cls-1 {
        fill: #000;
      }

      .cls-1, .cls-2 {
        stroke-width: 0px;
      }

      .cls-2 {
        fill: #fff;
      }
    </style>
  </defs>
  <g id="Calque_1-2" data-name="Calque 1">
    <g>
      <path class="cls-2" d="M59.53,118.6h0c15.22.01,30.43.05,45.65,0,9.24-.03,13.54-4.14,13.56-13.23.07-30.76.07-61.51,0-92.27-.02-8.87-4.36-13.07-13.23-13.08C74.76,0,44.01,0,13.26.03,4.16.04.02,4.27.02,13.48c-.02,30.6-.02,61.2,0,91.79,0,9.11,4.19,13.29,13.39,13.32,15.37.05,30.75.01,46.12.01Z"/>
      <path class="cls-1" d="M59.53,118.6c-15.37,0-30.75.03-46.12-.01-9.2-.03-13.38-4.2-13.39-13.32-.02-30.6-.02-61.2,0-91.79C.02,4.27,4.16.04,13.26.03,44.01,0,74.76,0,105.51.02c8.87,0,13.21,4.21,13.23,13.08.07,30.76.07,61.51,0,92.27-.02,9.09-4.33,13.21-13.56,13.23-15.22.04-30.43.01-45.65.01h0ZM2.15,58.76c0,15.69-.02,31.38.01,47.08.01,6.71,3.5,10.6,10.02,10.62,31.38.1,62.76.1,94.13.03,6.37-.02,10.24-3.7,10.26-10.02.11-31.38.1-62.77-.01-94.15-.03-6.62-3.86-10.16-10.57-10.17-31.06-.05-62.12-.05-93.18,0-7.12.01-10.66,3.74-10.67,10.97-.03,15.22,0,30.43,0,45.65Z"/>
      <path class="cls-2" d="M2.15,58.76c0-15.22-.02-30.43,0-45.65.01-7.23,3.55-10.96,10.67-10.97,31.06-.05,62.12-.06,93.18,0,6.7.01,10.54,3.55,10.57,10.17.12,31.38.13,62.77.01,94.15-.02,6.32-3.89,10-10.26,10.02-31.38.08-62.76.07-94.13-.03-6.52-.02-10.01-3.91-10.02-10.62-.03-15.69-.01-31.38-.02-47.08ZM59.13,70.96c6.76.07,11.88-4.82,11.97-11.45.1-6.67-4.92-11.83-11.57-11.89-6.7-.06-11.82,4.88-11.92,11.5-.1,6.76,4.78,11.77,11.52,11.84Z"/>
      <path class="cls-1" d="M59.13,70.96c-6.74-.07-11.62-5.09-11.52-11.84.1-6.62,5.22-11.56,11.92-11.5,6.65.06,11.67,5.22,11.57,11.89-.1,6.63-5.22,11.52-11.97,11.45ZM49.94,58.03c-.45-.45-.91-.91-1.36-1.36,2.62-2.73,5.24-5.46,7.85-8.19.51.51,1.02,1.02,1.53,1.53-5.35-.06-7.92,2.5-8.03,8.01Z"/>
      <path class="cls-2" d="M49.94,58.03c.11-5.51,2.67-8.07,8.03-8.01-.51-.51-1.02-1.02-1.53-1.53-2.62,2.73-5.24,5.46-7.85,8.19.45.45.91.91,1.36,1.36Z"/>
    </g>
  </g>
</svg>