<?xml version="1.0" encoding="UTF-8"?>
<svg id="Calque_2" data-name="Calque 2" xmlns="http://www.w3.org/2000/svg" viewBox="0 0 118.67 118.62">
  <defs>
    <style>
      .cls-1 {
        fill: #000;
      }

      .cls-1, .cls-2 {
        stroke-width: 0px;
      }

      .cls-2 {
        fill: #fff;
      }
    </style>
  </defs>
  <g id="Calque_1-2" data-name="Calque 1">
    <g>
      <path class="cls-2" d="M118.66,59.74c0-15.38.03-30.75-.01-46.13C118.62,4.14,114.47.01,105.01,0,74.74,0,44.47,0,14.2.02,3.77.02.04,3.79.03,14.42,0,44.54,0,74.65.01,104.77c0,9.9,3.97,13.83,13.82,13.84,30.27.01,60.54.01,90.81.01,10.06,0,13.99-3.95,14.01-14.18.03-14.9,0-29.8.02-44.7Z"/>
      <path class="cls-1" d="M118.66,59.74c0,14.9.02,29.8-.01,44.7-.02,10.24-3.94,14.18-14.01,14.18-30.27,0-60.54,0-90.81-.01-9.85,0-13.81-3.94-13.82-13.84C0,74.65,0,44.54.03,14.42.04,3.79,3.77.02,14.2.02,44.47,0,74.74,0,105.01,0c9.46,0,13.61,4.13,13.64,13.6.05,15.38.01,30.75,0,46.13ZM116.52,59.55c0-15.06.03-30.12-.01-45.17-.03-9.18-3.11-12.24-12.3-12.24-29.95-.01-59.9-.01-89.85,0-9.17,0-12.26,3.06-12.27,12.24-.02,30.12-.02,60.23,0,90.35,0,8.49,3.29,11.78,11.8,11.79,30.27.03,60.53.03,90.8,0,8.48,0,11.81-3.34,11.83-11.79.03-15.06,0-30.12,0-45.17Z"/>
      <path class="cls-2" d="M116.53,59.55c0,15.06.03,30.12,0,45.17-.02,8.46-3.35,11.79-11.83,11.79-30.27.02-60.53.02-90.8,0-8.51,0-11.79-3.3-11.8-11.79-.02-30.12-.02-60.23,0-90.35,0-9.18,3.09-12.24,12.27-12.24,29.95-.01,59.9-.02,89.85,0,9.18,0,12.27,3.06,12.3,12.24.04,15.06.01,30.11.02,45.17ZM92.31,14.61c-6.61-.04-12.1,5.51-12,12.11.1,6.33,5.65,11.72,11.97,11.63,6.4-.09,11.75-5.49,11.74-11.87,0-6.41-5.36-11.84-11.72-11.87ZM38.31,92.03c-.12-6.41-5.55-11.73-11.91-11.68-6.61.06-12.09,5.73-11.83,12.23.26,6.42,5.78,11.61,12.15,11.43,6.47-.18,11.71-5.61,11.6-11.98Z"/>
      <path class="cls-1" d="M92.31,14.61c6.35.03,11.71,5.46,11.72,11.87,0,6.38-5.34,11.78-11.74,11.87-6.33.09-11.87-5.3-11.97-11.63-.11-6.59,5.39-12.14,12-12.11ZM82.52,25.33c-.62-.74-1.25-1.48-1.87-2.22,3.02-2.51,6.04-5.02,9.06-7.53.46.46.92.93,1.38,1.39-5.53.06-8.11,2.58-8.57,8.37Z"/>
      <path class="cls-1" d="M38.31,92.03c.12,6.38-5.13,11.8-11.6,11.98-6.37.18-11.89-5.01-12.15-11.43-.26-6.5,5.22-12.18,11.83-12.23,6.36-.05,11.8,5.27,11.91,11.68ZM23.69,81.22c.52.52,1.03,1.03,1.55,1.55-5.37-.09-8.18,2.69-8.24,5.55,1.34-1.43,4.02-4.26,6.69-7.1Z"/>
      <path class="cls-2" d="M82.52,25.33c.46-5.79,3.04-8.31,8.57-8.37-.46-.46-.92-.93-1.38-1.39-3.02,2.51-6.04,5.02-9.06,7.53.62.74,1.25,1.48,1.87,2.22Z"/>
      <path class="cls-2" d="M23.69,81.22c-2.67,2.84-5.35,5.67-6.69,7.1.06-2.86,2.87-5.64,8.24-5.55-.52-.52-1.03-1.03-1.55-1.55Z"/>
    </g>
  </g>
</svg>