<?xml version="1.0" encoding="UTF-8"?>
<svg id="Calque_2" data-name="Calque 2" xmlns="http://www.w3.org/2000/svg" viewBox="0 0 118.69 118.74">
  <defs>
    <style>
      .cls-1 {
        fill: #000;
      }

      .cls-1, .cls-2 {
        stroke-width: 0px;
      }

      .cls-2 {
        fill: #fff;
      }
    </style>
  </defs>
  <g id="Calque_1-2" data-name="Calque 1">
    <g>
      <path class="cls-2" d="M118.68,59.63c0-15.54.02-31.07,0-46.61C118.65,4.28,114.32.01,105.48,0,74.89,0,44.3,0,13.7.01,4.14.02.09,3.96.07,13.55,0,44.14-.02,74.74.02,105.34c.01,8.98,4.15,13.3,13.02,13.33,30.91.09,61.82.09,92.72.02,8.74-.02,12.89-4.47,12.91-13.39.03-15.22,0-30.44.01-45.66Z"/>
      <path class="cls-1" d="M118.68,59.63c0,15.22.02,30.44,0,45.66-.02,8.92-4.17,13.37-12.91,13.39-30.91.08-61.82.08-92.72-.02-8.87-.03-13-4.35-13.02-13.33C-.02,74.74,0,44.14.07,13.55.09,3.96,4.14.02,13.7.01c30.59-.01,61.18-.01,91.77,0,8.85,0,13.18,4.27,13.19,13.01.03,15.54,0,31.07,0,46.61ZM116.61,59.58c0-15.22.03-30.44-.01-45.66-.02-8.5-3.36-11.82-11.79-11.82-30.27-.01-60.55,0-90.82,0-8.34,0-11.95,3.44-11.96,11.75-.05,30.44-.05,60.88.01,91.31.02,7.71,3.68,11.38,11.41,11.4,30.59.08,61.18.09,91.77.04,7.81-.01,11.36-3.65,11.38-11.37.04-15.22.01-30.44.01-45.66Z"/>
      <path class="cls-2" d="M116.61,59.58c0,15.22.03,30.44-.01,45.66-.02,7.73-3.57,11.36-11.38,11.37-30.59.05-61.18.04-91.77-.04-7.73-.02-11.39-3.69-11.41-11.4-.06-30.44-.07-60.88-.01-91.31.01-8.31,3.62-11.75,11.96-11.75,30.27-.01,60.55-.01,90.82,0,8.43,0,11.77,3.32,11.79,11.82.04,15.22.01,30.44.01,45.66ZM92.2,38.26c6.51,0,11.8-5.19,11.88-11.63.08-6.41-5.17-11.84-11.59-11.98-6.63-.15-12.15,5.29-12.09,11.9.06,6.41,5.41,11.72,11.8,11.72ZM26.4,80.41c-6.6.11-11.7,5.24-11.67,11.74.03,6.75,5.34,11.9,12.13,11.77,6.45-.12,11.56-5.48,11.45-11.98-.11-6.46-5.47-11.63-11.92-11.53ZM71.09,59.83c.23-6.66-4.68-12.03-11.2-12.26-6.77-.23-11.97,4.54-12.2,11.22-.23,6.71,4.6,12.04,11.17,12.29,6.65.26,12.01-4.67,12.23-11.25Z"/>
      <path class="cls-1" d="M92.2,38.26c-6.39,0-11.74-5.31-11.8-11.72-.06-6.61,5.46-12.05,12.09-11.9,6.42.14,11.67,5.57,11.59,11.98-.08,6.45-5.37,11.63-11.88,11.63ZM82.56,24.68c-.51-.43-1.02-.85-1.53-1.28,2.96-2.52,5.92-5.04,7.43-6.32-2.86.21-4.85,2.04-5.9,7.6Z"/>
      <path class="cls-1" d="M26.4,80.41c6.45-.11,11.81,5.07,11.92,11.53.11,6.5-5,11.86-11.45,11.98-6.79.13-12.1-5.02-12.13-11.77-.03-6.5,5.07-11.64,11.67-11.74ZM23.73,81.43c.5.38,1.01.75,1.51,1.13-5.83.64-8.27,3.14-8.06,5.94,1.54-1.66,4.04-4.37,6.55-7.07Z"/>
      <path class="cls-1" d="M71.09,59.83c-.22,6.58-5.58,11.51-12.23,11.25-6.56-.25-11.4-5.57-11.17-12.29.23-6.68,5.43-11.45,12.2-11.22,6.52.23,11.43,5.6,11.2,12.26ZM55.6,50.03c-3.43.4-5.88,3.09-5.51,8.12-.59-.59-1.18-1.19-1.77-1.78,2.84-2.47,5.69-4.94,7.29-6.34Z"/>
      <path class="cls-2" d="M82.56,24.68c1.06-5.55,3.04-7.39,5.9-7.6-1.51,1.28-4.47,3.8-7.43,6.32.51.43,1.02.85,1.53,1.28Z"/>
      <path class="cls-2" d="M23.73,81.43c-2.51,2.7-5.01,5.41-6.55,7.07-.21-2.8,2.23-5.3,8.06-5.94-.5-.38-1.01-.75-1.51-1.13Z"/>
      <path class="cls-2" d="M55.6,50.03c-1.6,1.39-4.45,3.86-7.29,6.34.59.59,1.18,1.19,1.77,1.78-.37-5.03,2.09-7.72,5.51-8.12Z"/>
    </g>
  </g>
</svg>