<?xml version="1.0" encoding="UTF-8"?>
<svg id="Calque_2" data-name="Calque 2" xmlns="http://www.w3.org/2000/svg" viewBox="0 0 118.79 118.7">
  <defs>
    <style>
      .cls-1 {
        fill: #000;
      }

      .cls-1, .cls-2 {
        stroke-width: 0px;
      }

      .cls-2 {
        fill: #fff;
      }
    </style>
  </defs>
  <g id="Calque_1-2" data-name="Calque 1">
    <g>
      <path class="cls-2" d="M59.32,118.69c15.22,0,30.43.02,45.65,0,9.5-.01,13.77-4.12,13.79-13.5.05-30.6.05-61.2,0-91.79-.01-8.93-4.24-13.31-13.03-13.33C74.82-.02,43.91-.02,13,.06,4.15.08.03,4.41.02,13.36c-.03,30.76-.03,61.51,0,92.27.01,8.76,4.34,13.03,13.16,13.06,15.38.04,30.75.01,46.13.01Z"/>
      <path class="cls-1" d="M59.32,118.69c-15.38,0-30.75.03-46.13-.01-8.82-.02-13.15-4.29-13.16-13.06C0,74.87-.01,44.11.02,13.36.03,4.41,4.15.08,13,.06c30.91-.08,61.82-.08,92.73,0,8.79.02,13.01,4.41,13.03,13.33.05,30.6.05,61.2,0,91.79-.02,9.38-4.28,13.49-13.79,13.5-15.22.02-30.43,0-45.65,0ZM59.06,116.57c15.21,0,30.43.01,45.64,0,8.48,0,11.92-3.27,11.94-11.72.07-30.44.07-60.87,0-91.31-.02-7.82-3.61-11.36-11.39-11.37-30.59-.05-61.18-.04-91.76,0-7.87.01-11.35,3.54-11.35,11.29-.01,30.59-.02,61.19,0,91.78,0,7.81,3.46,11.3,11.27,11.32,15.21.03,30.43,0,45.64.01Z"/>
      <path class="cls-2" d="M59.06,116.57c-15.21,0-30.43.02-45.64,0-7.81-.02-11.27-3.5-11.27-11.32-.01-30.59-.01-61.19,0-91.78,0-7.75,3.48-11.28,11.35-11.29,30.59-.04,61.18-.05,91.76,0,7.78.01,11.37,3.55,11.39,11.37.07,30.44.06,60.87,0,91.31-.02,8.45-3.47,11.71-11.94,11.72-15.21.02-30.43,0-45.64,0ZM38.29,92.02c-.12-6.42-5.49-11.68-11.9-11.64-6.54.04-12,5.75-11.75,12.29.24,6.21,5.53,11.36,11.71,11.39,6.73.04,12.06-5.34,11.94-12.05ZM103.98,92.38c.06-6.46-5.08-11.82-11.51-11.98-6.55-.17-12.09,5.31-12.07,11.94.01,6.36,5.43,11.74,11.81,11.74,6.48,0,11.71-5.2,11.77-11.7ZM38.3,26.66c.11-6.4-5.14-11.82-11.55-11.93-6.69-.11-12.16,5.25-12.11,11.89.05,6.39,5.44,11.72,11.85,11.73,6.47,0,11.7-5.17,11.81-11.69ZM92.23,14.73c-6.53,0-11.7,5.11-11.78,11.66-.08,6.51,5.04,11.83,11.5,11.95,6.74.13,12.03-5.1,12-11.89-.02-6.48-5.27-11.72-11.73-11.72Z"/>
      <path class="cls-1" d="M38.29,92.02c.12,6.7-5.21,12.08-11.94,12.05-6.18-.03-11.47-5.18-11.71-11.39-.25-6.54,5.2-12.25,11.75-12.29,6.4-.04,11.78,5.22,11.9,11.64ZM17.11,88.42c1.38-1.38,4.14-4.14,5.57-5.56-2.95.13-5.37,2.54-5.57,5.56Z"/>
      <path class="cls-1" d="M103.98,92.38c-.06,6.5-5.29,11.7-11.77,11.7-6.38,0-11.8-5.38-11.81-11.74-.01-6.63,5.52-12.11,12.07-11.94,6.43.16,11.58,5.52,11.51,11.98ZM82.38,90.71c-.34-.3-.68-.6-1.02-.9,2.84-2.72,5.68-5.43,7.27-6.95-3.04.18-4.95,1.96-6.25,7.86Z"/>
      <path class="cls-1" d="M38.3,26.66c-.11,6.52-5.34,11.69-11.81,11.69-6.41,0-11.8-5.34-11.85-11.73-.05-6.64,5.42-12,12.11-11.89,6.41.11,11.66,5.53,11.55,11.93ZM23.75,15.81c.46.46.92.92,1.38,1.38-5.31-.1-8.35,3.02-7.9,8.11-.6-.6-1.2-1.21-1.8-1.81,2.78-2.56,5.55-5.13,8.33-7.69Z"/>
      <path class="cls-1" d="M92.23,14.73c6.46,0,11.7,5.24,11.73,11.72.03,6.79-5.26,12.03-12,11.89-6.46-.13-11.58-5.45-11.5-11.95.08-6.54,5.25-11.66,11.78-11.66ZM88.29,17.21c-2.99.14-5.62,2.84-5.42,8.09-.62-.62-1.24-1.24-1.86-1.86,2.8-2.39,5.6-4.79,7.28-6.23Z"/>
      <path class="cls-2" d="M17.11,88.42c.2-3.02,2.62-5.43,5.57-5.56-1.43,1.43-4.19,4.19-5.57,5.56Z"/>
      <path class="cls-2" d="M82.38,90.71c1.3-5.89,3.21-7.68,6.25-7.86-1.59,1.52-4.43,4.24-7.27,6.95.34.3.68.6,1.02.9Z"/>
      <path class="cls-2" d="M23.75,15.81c-2.78,2.56-5.55,5.13-8.33,7.69.6.6,1.2,1.21,1.8,1.81-.44-5.1,2.59-8.21,7.9-8.11-.46-.46-.92-.92-1.38-1.38Z"/>
      <path class="cls-2" d="M88.29,17.21c-1.69,1.44-4.48,3.84-7.28,6.23.62.62,1.24,1.24,1.86,1.86-.2-5.24,2.43-7.95,5.42-8.09Z"/>
    </g>
  </g>
</svg>