<?xml version="1.0" encoding="UTF-8"?>
<svg id="Calque_2" data-name="Calque 2" xmlns="http://www.w3.org/2000/svg" viewBox="0 0 118.68 118.73">
  <defs>
    <style>
      .cls-1 {
        fill: #000;
      }

      .cls-1, .cls-2 {
        stroke-width: 0px;
      }

      .cls-2 {
        fill: #fff;
      }
    </style>
  </defs>
  <g id="Calque_1-2" data-name="Calque 1">
    <g>
      <path class="cls-2" d="M59.33,118.71c15.37,0,30.75.03,46.12-.01,8.86-.02,13.17-4.22,13.19-13.06.06-30.75.05-61.51,0-92.26-.01-9.01-4.09-13.28-12.99-13.31C74.75-.02,43.84-.02,12.94.05,4.26.07.05,4.37.03,12.95c-.04,30.91-.05,61.82,0,92.74.01,8.85,4.27,13,13.18,13.02,15.37.04,30.75,0,46.12,0Z"/>
      <path class="cls-1" d="M59.33,118.71c-15.37,0-30.75.03-46.12,0-8.91-.02-13.17-4.17-13.18-13.02-.04-30.91-.04-61.82,0-92.74C.05,4.37,4.26.07,12.94.05c30.91-.07,61.81-.08,92.72.02,8.9.03,12.98,4.3,12.99,13.31.05,30.75.05,61.51,0,92.26-.02,8.83-4.33,13.03-13.19,13.06-15.37.04-30.75.01-46.12.02ZM59.45,116.59c15.05,0,30.11.01,45.16,0,8.57-.01,11.91-3.24,11.92-11.65.03-30.43.03-60.87,0-91.3,0-7.92-3.38-11.41-11.23-11.43-30.74-.07-61.49-.08-92.23-.02-7.47.01-10.93,3.67-10.94,11.24-.02,30.59-.03,61.18,0,91.78,0,8.08,3.42,11.37,11.69,11.38,15.21.02,30.43,0,45.64,0Z"/>
      <path class="cls-2" d="M59.45,116.59c-15.21,0-30.43.02-45.64,0-8.26-.01-11.68-3.31-11.69-11.38-.03-30.59-.02-61.18,0-91.78,0-7.57,3.46-11.23,10.94-11.24,30.74-.06,61.49-.05,92.23.02,7.85.02,11.22,3.51,11.23,11.43.04,30.43.03,60.87,0,91.3,0,8.42-3.35,11.64-11.92,11.65-15.05.02-30.11,0-45.16,0ZM38.33,26.66c.06-6.41-5.18-11.79-11.63-11.92-6.41-.13-11.92,5.05-12.13,11.43-.22,6.53,5.26,12.18,11.86,12.22,6.3.04,11.84-5.42,11.9-11.73ZM92.3,14.74c-6.47-.06-11.79,5.08-11.96,11.57-.18,6.55,5.36,12.12,11.98,12.06,6.42-.06,11.72-5.42,11.72-11.83,0-6.39-5.33-11.74-11.73-11.8ZM104.04,92.35c.07-6.36-5.21-11.79-11.63-11.94-6.56-.16-12.16,5.38-12.09,11.97.07,6.36,5.53,11.75,11.9,11.73,6.41-.02,11.76-5.33,11.83-11.75ZM26.4,80.41c-6.42.05-11.75,5.34-11.83,11.76-.08,6.53,5.58,12.08,12.16,11.91,6.42-.17,11.71-5.66,11.58-12.01-.14-6.5-5.46-11.71-11.91-11.66ZM70.98,59.57c.06-6.79-4.81-11.81-11.51-11.87-6.75-.05-11.8,4.88-11.83,11.56-.03,6.83,4.79,11.77,11.52,11.83,6.8.06,11.76-4.78,11.81-11.53Z"/>
      <path class="cls-1" d="M38.33,26.66c-.06,6.31-5.59,11.77-11.9,11.73-6.6-.04-12.08-5.69-11.86-12.22.22-6.37,5.72-11.56,12.13-11.43,6.45.14,11.69,5.51,11.63,11.92ZM23.34,15.76c.59.44,1.18.88,1.78,1.32-5.33.21-7.98,2.87-8.2,8.25-.44-.44-.89-.88-1.33-1.32,2.59-2.75,5.17-5.5,7.76-8.25Z"/>
      <path class="cls-1" d="M92.3,14.74c6.41.06,11.73,5.41,11.73,11.8,0,6.41-5.3,11.76-11.72,11.83-6.62.07-12.16-5.5-11.98-12.06.18-6.49,5.49-11.63,11.96-11.57ZM89.59,15.88l1.29,1.3c-5.36-.03-8.49,3.19-7.96,8.18-.8-.81-1.6-1.61-2.41-2.42,3.02-2.35,6.05-4.71,9.07-7.06Z"/>
      <path class="cls-1" d="M104.04,92.35c-.07,6.43-5.42,11.74-11.83,11.75-6.37.02-11.83-5.37-11.9-11.73-.07-6.58,5.53-12.12,12.09-11.97,6.42.15,11.71,5.58,11.63,11.94ZM89.52,81.43c.47.48.95.95,1.42,1.43-5.43-.02-8.49,3.11-8.04,8.21-.58-.58-1.16-1.16-1.73-1.74,2.78-2.63,5.57-5.27,8.35-7.9Z"/>
      <path class="cls-1" d="M26.4,80.41c6.45-.05,11.77,5.16,11.91,11.66.14,6.35-5.16,11.84-11.58,12.01-6.58.18-12.24-5.37-12.16-11.91.08-6.42,5.41-11.72,11.83-11.76ZM23.7,81.24c.51.51,1.02,1.02,1.53,1.53-5.43.2-7.99,2.74-8.32,8.23-.48-.47-.95-.95-1.43-1.42,2.74-2.78,5.48-5.56,8.22-8.33Z"/>
      <path class="cls-1" d="M70.98,59.57c-.06,6.75-5.02,11.59-11.81,11.53-6.73-.06-11.55-5.01-11.52-11.83.03-6.68,5.08-11.61,11.83-11.56,6.7.05,11.56,5.07,11.51,11.87ZM50.06,55.64c1.43-1.54,3.98-4.29,6.54-7.05.44.44.89.89,1.33,1.33-5.56.41-7.77,2.63-7.87,5.71Z"/>
      <path class="cls-2" d="M23.34,15.76c-2.59,2.75-5.17,5.5-7.76,8.25.44.44.89.88,1.33,1.32.22-5.39,2.87-8.05,8.2-8.25-.59-.44-1.18-.88-1.78-1.32Z"/>
      <path class="cls-2" d="M89.59,15.88c-3.02,2.35-6.05,4.71-9.07,7.06.8.81,1.6,1.61,2.41,2.42-.53-5,2.6-8.22,7.96-8.18l-1.29-1.3Z"/>
      <path class="cls-2" d="M89.52,81.43c-2.78,2.63-5.57,5.27-8.35,7.9.58.58,1.16,1.16,1.73,1.74-.45-5.1,2.61-8.23,8.04-8.21-.47-.48-.95-.95-1.42-1.43Z"/>
      <path class="cls-2" d="M23.7,81.24c-2.74,2.78-5.48,5.56-8.22,8.33.48.47.95.95,1.43,1.42.33-5.49,2.89-8.03,8.32-8.23-.51-.51-1.02-1.02-1.53-1.53Z"/>
      <path class="cls-2" d="M50.06,55.64c.1-3.08,2.31-5.3,7.87-5.71-.44-.44-.89-.89-1.33-1.33-2.56,2.75-5.11,5.51-6.54,7.05Z"/>
    </g>
  </g>
</svg>