<?xml version="1.0" encoding="UTF-8"?>
<svg id="Calque_2" data-name="Calque 2" xmlns="http://www.w3.org/2000/svg" viewBox="0 0 118.68 118.69">
  <defs>
    <style>
      .cls-1 {
        fill: #000;
      }

      .cls-1, .cls-2 {
        stroke-width: 0px;
      }

      .cls-2 {
        fill: #fff;
      }
    </style>
  </defs>
  <g id="Calque_1-2" data-name="Calque 1">
    <g>
      <path class="cls-2" d="M118.67,59.51c0-15.38.02-30.76,0-46.13-.02-9.14-4.17-13.34-13.39-13.35C74.68-.01,44.09-.01,13.5.04,4.2.05.05,4.17.03,13.35c-.05,30.75-.04,61.51,0,92.26.01,8.77,4.37,13.05,13.2,13.06,30.75.02,61.5.02,92.24,0,8.85,0,13.17-4.29,13.18-13.03.03-15.38,0-30.75,0-46.13Z"/>
      <path class="cls-1" d="M118.67,59.51c0,15.38.02,30.76,0,46.13-.02,8.74-4.33,13.02-13.18,13.03-30.75.03-61.5.03-92.24,0-8.83,0-13.19-4.29-13.2-13.06C0,74.86-.01,44.11.03,13.35.05,4.17,4.2.05,13.5.04,44.09-.01,74.68-.01,105.27.03c9.22.01,13.37,4.21,13.39,13.35.03,15.38,0,30.76,0,46.13ZM59.5,116.56c15.21,0,30.43.02,45.64,0,7.92-.01,11.43-3.38,11.44-11.16.04-30.59.04-61.19,0-91.78,0-7.89-3.47-11.44-11.22-11.45-30.59-.04-61.18-.03-91.76.01-7.85.01-11.51,3.5-11.53,11.22-.08,30.59-.08,61.19-.02,91.78.01,7.99,3.64,11.37,11.8,11.39,15.21.02,30.43,0,45.64,0Z"/>
      <path class="cls-2" d="M59.5,116.56c-15.21,0-30.43.02-45.64,0-8.17-.01-11.79-3.39-11.8-11.39-.05-30.59-.05-61.19.02-91.78.02-7.72,3.68-11.2,11.53-11.22,30.59-.04,61.18-.05,91.76-.01,7.75.01,11.21,3.57,11.22,11.45.03,30.59.04,61.19,0,91.78-.01,7.78-3.52,11.15-11.44,11.16-15.21.02-30.43,0-45.64,0ZM80.41,91.83c-.27,6.4,4.78,11.86,11.3,12.22,6.33.35,11.93-4.72,12.36-11.2.43-6.48-4.97-12.31-11.56-12.46-6.4-.15-11.83,4.98-12.1,11.44ZM92.11,14.71c-6.41.06-11.75,5.44-11.71,11.81.03,6.45,5.27,11.76,11.7,11.85,6.52.09,12.15-5.59,11.99-12.09-.16-6.47-5.5-11.62-11.97-11.57ZM38.31,92.27c.04-6.46-5.18-11.8-11.62-11.89-6.6-.1-12.03,5.36-11.96,12.03.06,6.47,5.36,11.69,11.83,11.66,6.42-.03,11.72-5.35,11.76-11.79ZM14.73,26.35c-.1,6.55,4.87,11.74,11.47,11.97,6.39.23,11.85-4.93,12.09-11.4.24-6.66-5.04-12.16-11.72-12.2-6.44-.03-11.74,5.17-11.84,11.63ZM26.58,47.67c-6.63-.04-11.76,4.95-11.86,11.51-.1,6.51,4.98,11.78,11.47,11.89,6.85.11,12.14-5.01,12.12-11.73-.03-6.53-5.16-11.64-11.73-11.67ZM92,71.06c6.72.06,11.89-4.86,12.06-11.45.16-6.44-5.1-11.88-11.6-11.96-6.63-.09-11.9,4.94-12.05,11.49-.14,6.48,5.09,11.86,11.59,11.92Z"/>
      <path class="cls-1" d="M80.41,91.83c.27-6.46,5.7-11.59,12.1-11.44,6.58.15,11.99,5.98,11.56,12.46-.43,6.48-6.03,11.55-12.36,11.2-6.51-.36-11.57-5.83-11.3-12.22ZM82.69,90.91c-.47-.58-.95-1.15-1.42-1.73,2.76-2.64,5.52-5.27,8.28-7.91l1.51,1.51c-5.31.03-8.02,2.66-8.36,8.12Z"/>
      <path class="cls-1" d="M92.11,14.71c6.48-.06,11.81,5.1,11.97,11.57.16,6.51-5.46,12.18-11.99,12.09-6.42-.09-11.66-5.4-11.7-11.85-.03-6.37,5.3-11.75,11.71-11.81ZM82.54,24.82c-.36-.29-.72-.57-1.08-.86,2.6-2.87,5.2-5.73,7.8-8.6.56.56,1.11,1.11,1.67,1.67-5.12.21-7.52,2.44-8.39,7.79Z"/>
      <path class="cls-1" d="M38.31,92.27c-.04,6.45-5.33,11.76-11.76,11.79-6.47.03-11.76-5.19-11.83-11.66-.06-6.67,5.37-12.12,11.96-12.03,6.44.09,11.65,5.43,11.62,11.89ZM16.95,90.75c-.42-.47-.84-.94-1.26-1.4,2.66-2.7,5.33-5.4,7.99-8.1.54.54,1.08,1.08,1.62,1.62-5.04-.24-7.83,2.4-8.35,7.87Z"/>
      <path class="cls-1" d="M14.73,26.35c.1-6.46,5.4-11.66,11.84-11.63,6.68.03,11.96,5.53,11.72,12.2-.24,6.48-5.7,11.63-12.09,11.4-6.6-.23-11.57-5.42-11.47-11.97ZM17.07,25.28l-1.39-1.38c2.67-2.75,5.35-5.49,8.02-8.24.51.51,1.01,1.01,1.52,1.52-5.25-.13-8.07,2.67-8.16,8.11Z"/>
      <path class="cls-1" d="M26.58,47.67c6.57.04,11.7,5.14,11.73,11.67.03,6.72-5.27,11.85-12.12,11.73-6.49-.11-11.57-5.38-11.47-11.89.1-6.56,5.24-11.55,11.86-11.51ZM23.42,48.57c.48.42.96.83,1.44,1.25-5.53.77-7.56,2.89-7.74,6.41,1.54-1.87,3.92-4.76,6.31-7.66Z"/>
      <path class="cls-1" d="M92,71.06c-6.5-.06-11.73-5.44-11.59-11.92.15-6.55,5.42-11.58,12.05-11.49,6.49.08,11.76,5.51,11.6,11.96-.17,6.59-5.34,11.51-12.06,11.45ZM89.31,48.55c.51.42,1.02.83,1.53,1.25-5.78.71-7.99,2.99-8,6.08,1.47-1.67,3.97-4.5,6.47-7.33Z"/>
      <path class="cls-2" d="M82.69,90.91c.34-5.46,3.05-8.1,8.36-8.12l-1.51-1.51c-2.76,2.64-5.52,5.27-8.28,7.91.47.58.95,1.15,1.42,1.73Z"/>
      <path class="cls-2" d="M82.54,24.82c.87-5.35,3.27-7.58,8.39-7.79-.56-.56-1.11-1.11-1.67-1.67-2.6,2.87-5.2,5.73-7.8,8.6.36.29.72.57,1.08.86Z"/>
      <path class="cls-2" d="M16.95,90.75c.52-5.48,3.31-8.11,8.35-7.87-.54-.54-1.08-1.08-1.62-1.62-2.66,2.7-5.33,5.4-7.99,8.1.42.47.84.94,1.26,1.4Z"/>
      <path class="cls-2" d="M17.07,25.28c.09-5.44,2.91-8.24,8.16-8.11-.51-.51-1.01-1.01-1.52-1.52-2.67,2.75-5.35,5.49-8.02,8.24l1.39,1.38Z"/>
      <path class="cls-2" d="M23.42,48.57c-2.38,2.89-4.77,5.79-6.31,7.66.19-3.52,2.22-5.64,7.74-6.41-.48-.42-.96-.83-1.44-1.25Z"/>
      <path class="cls-2" d="M89.31,48.55c-2.5,2.83-5,5.66-6.47,7.33,0-3.09,2.22-5.37,8-6.08-.51-.42-1.02-.83-1.53-1.25Z"/>
    </g>
  </g>
</svg>